<svg id="Layer_1" data-name="Layer 1" xmlns="http://www.w3.org/2000/svg" viewBox="0 0 380 256.02" fill="#fff"><path d="M378.63,131.79a32.17,32.17,0,0,0-3.65-5c-9.07-9.44-18.33-19-27.29-28.26-10.78-11.13-21.93-22.65-32.83-34a14.68,14.68,0,0,0-11.78-4.9c-8.87.16-17.59.13-26.81.1-3.72,0-7.48,0-11.28,0h-2V41.13q0-15.14,0-30.26C263,3.46,259.49,0,252,0H46.66C38.83,0,35.48,3.43,35.47,11.43c0,7.19,0,14.37,0,21.72V45h-2l-2.73,0c-1.84,0-3.58,0-5.29,0-5.52.15-9.5,3.8-9.67,8.86s3.75,9.22,9.35,9.57c1.69.1,3.43.08,5.27,0q1.34,0,2.76,0h2V90h-2c-2.12,0-4.22,0-6.32,0-4.72.06-9.6.12-14.4-.13-6.32-.34-10.17,1.83-12.43,7v4.46c2.12,5.23,6,7.45,12.33,7.19,4.77-.19,9.47-.14,14.45-.1,2.19,0,4.41,0,6.68,0h2V210.85c0,9,3.15,12.15,12,12.17l4.16,0c4.65,0,9.46,0,14.17-.06,2.88,0,4.59,1.1,5.69,3.88C78.73,245.08,94.3,256,113.15,256h.11c18.76,0,34.31-10.85,41.61-29,1.09-2.7,2.74-3.8,5.7-3.8h0c34.64,0,68.83,0,101.62,0h0a5.41,5.41,0,0,1,5.66,3.85c7.26,18.17,22.81,29,41.6,29h.16c18.86-.06,34.34-10.86,41.43-28.88,1.14-2.9,2.95-4.08,6.06-4,1.49.05,3,0,4.53,0,2,0,4-.06,6,.07,6.19.42,10.11-1.84,12.32-7.11V133.89C379.53,133.2,379.08,132.49,378.63,131.79ZM113.25,237.5h0a25.9,25.9,0,0,1,0-51.8h0a25.9,25.9,0,1,1,0,51.8Zm130.86-33.14-1.88.11-1.43.09c-.92.07-1.79.13-2.67.13H217.25c-17.85,0-36.32,0-54.48.07h-.07c-3.23,0-5.62-.86-6.77-5a44,44,0,0,0-42.68-32.62H113c-20,.12-37.19,13.41-42.72,33.07-.16.58-.35,1.16-.55,1.78L69,204.29H54.18V108.8l1.91-.09,1.45-.07c1.05-.06,2.05-.12,3.09-.12H80.72q16.2,0,32.4,0c5.78,0,9.59-2.74,10.46-7.47a9.07,9.07,0,0,0-1.78-7.55A10.29,10.29,0,0,0,113.72,90C101.57,90,89.2,90,77.24,90c-4.95,0-9.93,0-14.87,0H54.16V63.51h65.77a26.82,26.82,0,0,0,4.49-.29A9,9,0,0,0,132,53.48a8.81,8.81,0,0,0-8.6-8.37c-5.47-.17-11.07-.14-16.48-.12l-6.33,0H54.2V18.75H244.11Zm18.81-125.6,1.79-.19,1-.12a20.54,20.54,0,0,1,2.61-.24h3.35c8.85,0,18,0,27,.07a8.49,8.49,0,0,1,5.68,2.15c11.49,11.72,23.07,23.73,34.27,35.35l5.62,5.82a3.92,3.92,0,0,1,.73,1.15c.06.13.13.28.22.45l1.59,3H262.92ZM309.51,237.5h-.17a26,26,0,0,1-25.79-25.86,25.65,25.65,0,0,1,7.62-18.37,25.94,25.94,0,0,1,18.52-7.56A25.61,25.61,0,0,1,328,193.38,26,26,0,0,1,335.39,212,25.59,25.59,0,0,1,309.51,237.5Zm51.71-33.84-1.31.48a8.25,8.25,0,0,1-2.79.59,4.31,4.31,0,0,1-2-.47,5.81,5.81,0,0,1-2.73-3.95c-5.32-19.17-20.83-31.84-40.46-33.05-19-1.17-36.16,9.85-43.75,28.09-.17.42-.36.82-.55,1.23l-.8,1.71-3.91-.06v-53.1h98.3Z"/></svg>