<svg id="Layer_1" data-name="Layer 1" xmlns="http://www.w3.org/2000/svg" viewBox="0 0 381.93 382.28" fill="#fff"><path d="M298.08,231.31a34.21,34.21,0,0,0-40.76-5c-6.06,3.41-11.29,8.28-16.34,13l-.36.34c-4.93,4.59-9.71,9.53-14.34,14.3-1.69,1.73-3.38,3.47-5.09,5.21-1.35-.74-2.68-1.45-4-2.16-3.74-2-7.26-3.9-10.64-6.05-16.75-10.68-32.29-23.78-47.49-40-12.23-13.08-26-29.1-35.76-48.77-.72-1.46-.68-1.71.57-3,1.91-1.91,3.83-3.8,5.75-5.7,7.18-7.09,14.6-14.43,21.39-22.15,12.29-14,12.17-34.59-.27-47.94-18-19.31-34.16-35.65-49.43-50-16.57-15.53-36-15.78-53.42-.66C39.56,40,31.79,48.09,24.27,55.93q-3.68,3.84-7.38,7.64A56.72,56.72,0,0,0,1.75,92.67c-.6,3-.94,6.16-1.27,9.16-.15,1.36-.29,2.72-.46,4.08l0,5.42,0,.26c.26,2,.49,4,.72,6,.49,4.4,1,9,1.89,13.4C6.32,149.7,13,168.31,23,187.93c32.47,63.74,79.51,115.41,139.81,153.58,28.12,17.79,52.79,29.11,77.65,35.63,5.39,1.41,11,2.3,16.35,3.16,2.53.41,5.14.83,7.68,1.29a13.75,13.75,0,0,1,1.46.38l.82.24.26.07h14.58l.28-.08.85-.27a7.54,7.54,0,0,1,1.29-.36c13.26-1.7,24.31-6.76,32.84-15,13.78-13.36,24-24,33.17-34.38a36.43,36.43,0,0,0-.56-49.23C334.49,267.07,318.17,250.67,298.08,231.31Zm32.14,85.15a43.25,43.25,0,0,1-3.25,3.7q-4.38,4.48-8.78,8.95c-5.1,5.18-10.37,10.54-15.49,15.89-8.62,9-19.63,12.78-33.66,11.57-24-2.07-45.3-11.32-61.21-19.15C146.51,307.25,96.27,260.88,58.51,199.61c-15.13-24.55-25.09-48.13-30.45-72.09l-.21-.91a43.43,43.43,0,0,1-.89-4.67c-.34-3-.62-6.1-.88-9.08l-.33-3.66c-.42-12.62,3.87-23,13.13-31.82,5-4.71,9.84-9.65,14.56-14.43,3.2-3.23,6.51-6.58,9.81-9.82C69.13,47.35,74.66,46,80.17,49A23.27,23.27,0,0,1,85.24,53c12.18,12.11,24.52,24.48,36.45,36.44L128.32,96c.68.68,1.37,1.45,2.13,2.34,5.55,6.56,5.52,12.14-.1,18.11-8.2,8.69-16.8,17-24.22,24.21-12.28,11.84-13.19,16.58-6.13,31.69,7,14.9,16.72,29.19,31.63,46.33,19.6,22.51,39.64,40.1,61.26,53.79a235.11,235.11,0,0,0,21.18,11.64c7.69,3.82,15.25,2.41,21.85-4.09,5.73-5.64,11.51-11.43,17.09-17q4.14-4.16,8.29-8.29c.94-.95,2-2,3.11-3,6.56-5.8,12.73-5.69,18.88.33,8,7.89,16.13,16,23.95,23.87l4.53,4.55,4.39,4.38c4.55,4.52,9.26,9.21,13.63,14C334.79,304.42,334.94,310.32,330.22,316.46Z"/><path d="M381.58,168.06l-.85-3.76c-2.13-9.44-4.33-19.2-7.5-28.52h0C362,102.92,342.79,74,316,49.92A205.26,205.26,0,0,0,228.08,3.24c-3.78-1-7.68-1.7-11.11-2.35-1.51-.29-3-.57-4.33-.85l-.2,0h-.21C205.47,0,200,4.3,198.87,10.38a12.63,12.63,0,0,0,7.85,14.13A36.26,36.26,0,0,0,213,26.09l.17,0a175.21,175.21,0,0,1,72.79,32.06c33.53,25.18,56,58,66.83,97.48.78,2.87,1.44,5.86,2.08,8.76.69,3.13,1.4,6.36,2.29,9.52a12.48,12.48,0,0,0,12,9.3,13,13,0,0,0,2.88-.33,12.84,12.84,0,0,0,8-5.26A12.22,12.22,0,0,0,381.58,168.06Z"/><path d="M280.92,152.68a101.84,101.84,0,0,1,5.26,16.17c.68,2.56,1.39,5.21,2.17,7.8,1.83,6,6.93,9.92,12.5,9.92a11.8,11.8,0,0,0,2.81-.34c6.93-1.64,11-8.39,9.52-15.7-8.81-43.07-33.5-74.32-73.38-92.89a111.56,111.56,0,0,0-30.12-8.94l-.28,0a14,14,0,0,0-10.12,3.86,12.55,12.55,0,0,0-3.6,9.09c.07,6.54,4.15,11,11.47,12.49C241.63,101.26,266.45,121,280.92,152.68Z"/></svg>