<?xml version="1.0" encoding="utf-8"?>
<!-- Generator: Adobe Illustrator 24.2.0, SVG Export Plug-In . SVG Version: 6.00 Build 0)  -->
<svg version="1.1" id="Layer_1" xmlns="http://www.w3.org/2000/svg" xmlns:xlink="http://www.w3.org/1999/xlink" x="0px" y="0px"
	 viewBox="0 0 232.7 47" style="enable-background:new 0 0 232.7 47;" xml:space="preserve">
<style type="text/css">
	.st0{fill:#FAC637;}
	.st1{fill:#FFFFFF;}
</style>
<path class="st0" d="M10.3,9.9c0.8,2.1,1.3,4.2,1.5,6.4c0.3,2,0.8,4,1.6,5.9c1.5,3.4,4.5,5.7,8.1,6.3c2.9,0.5,5.8,0.5,8.7,0.1
	c1.2-0.2,2.3-0.4,3.5-0.6c0.1,0,0.3-0.1,0.4-0.1c-1.6-1.9-3.5-3.6-5.5-5.1c-2.3-1.7-4.7-3-7.4-4c-1.5-0.6-2.2-2.2-1.6-3.6
	c0.6-1.5,2.2-2.2,3.6-1.6c2.4,0.9,4.7,2.1,6.9,3.5c2.5,1.6,4.8,3.4,6.8,5.6c0.1,0.1,0.2,0.2,0.4,0.2c-0.1-0.7-0.2-1.3-0.4-2
	c-1.1-5.7-4.2-10.8-8.7-14.4C24.9,3.9,21.1,2.1,17,1.2C13.4,0.3,9.6-0.1,5.8,0H5.6c-0.4,0-0.8,0.2-1,0.6C4.4,1.1,4.6,1.6,5,1.8
	C7.2,4.2,9,6.9,10.3,9.9z"/>
<path class="st0" d="M16.2,42.2c-1.4,0.8-3.1,0.4-4-1c0,0,0,0,0,0c-0.8-1.4-0.3-3.1,1.1-3.8c0,0,0.1,0,0.1-0.1
	c2.9-1.6,6-2.6,9.3-2.9c-0.3-0.2-0.5-0.3-0.8-0.4c-5.2-2.4-10.3-2-15.2,1c-2.5,1.5-4.6,3.4-6.4,5.6c-0.3,0.3-0.5,0.8-0.3,1.3
	c0.2,0.5,0.7,0.5,1.2,0.5c3.2-0.2,6.3,0.7,8.9,2.4c1.1,0.7,2.3,1.3,3.6,1.8c2,0.7,4.2,0.4,5.9-0.8c2.1-1.5,3.9-3.5,5.1-5.8
	c-1.7,0-3.4,0.2-5,0.7C18.5,41.1,17.3,41.6,16.2,42.2z"/>
<path class="st0" d="M31,20c-2.5-1.8-5.2-3.3-8.1-4.4c-0.2-0.1-0.5-0.2-0.8-0.2c-0.4,0-0.8,0.4-0.8,0.8c0,0.5,0.3,0.9,0.8,1.1
	c4.1,1.5,7.8,3.9,11,6.9c4.7,4.2,7.7,10,8.6,16.2c0,0.1,0,0.1,0,0.2c0.1,0.5,0.5,0.8,1,0.8c0.5-0.1,0.9-0.5,0.8-1c0,0,0,0,0,0h0.2
	c-0.5-1.9-0.9-3.9-1.6-5.8C40,28.7,36.1,23.6,31,20z"/>
<path class="st0" d="M34.5,39c-1.2-0.7-2.5-1.3-3.8-1.8c-5.7-2-11.1-1.2-16.3,1.6C14,39,13.7,39.5,13.8,40c0.2,0.5,0.7,0.8,1.3,0.6
	c0.1,0,0.2-0.1,0.2-0.1c1.8-1,3.9-1.7,5.9-2.1c1.1-0.2,2.3-0.3,3.5-0.4c3,0,6,0.9,8.6,2.5l0.2,0.1c0.4,0.3,1,0.2,1.3-0.2
	c0,0,0.1-0.1,0.1-0.1C35.1,39.9,35,39.3,34.5,39C34.5,39,34.5,39,34.5,39z"/>
<path class="st1" d="M67.6,22.8h-6.9c-0.7,0-1.3,0.2-1.8,0.7c-0.5,0.5-0.8,1.1-0.7,1.8c0,0.7,0.3,1.3,0.7,1.8
	c0.5,0.5,1.1,0.7,1.8,0.7h4v5.4c-0.7,0.2-1.4,0.4-2.1,0.5c-0.9,0.2-1.8,0.2-2.8,0.3c-1.8,0-3.5-0.5-5-1.4c-3-1.8-4.9-5.1-4.9-8.7
	c0-1.8,0.4-3.5,1.3-5.1c0.9-1.5,2.1-2.8,3.6-3.7c1.5-0.9,3.2-1.4,5-1.4c0.8,0,1.7,0.1,2.5,0.3c0.8,0.2,1.5,0.4,2.2,0.7
	c0.2,0.1,0.5,0.2,0.7,0.3c0.2,0.1,0.5,0.1,0.7,0.1c0.7,0,1.3-0.3,1.7-0.8c0.4-0.5,0.7-1.1,0.7-1.8c0-0.4-0.1-0.8-0.3-1.2
	c-0.2-0.4-0.6-0.7-1-0.9c-1.1-0.6-2.2-1-3.4-1.3C62.3,9,61,8.9,59.8,8.9c-2.1,0-4.1,0.4-6,1.2c-1.8,0.8-3.5,1.9-4.9,3.3
	c-1.4,1.4-2.5,3-3.3,4.8c-1.6,3.8-1.6,8,0,11.8c1.6,3.6,4.5,6.5,8.2,8.1c1.9,0.8,3.9,1.2,6,1.2c1.6,0,3.3-0.2,4.8-0.7
	c1.5-0.4,2.9-1.1,4.2-1.9c0.4-0.2,0.7-0.5,0.9-0.9c0.3-0.4,0.4-0.9,0.4-1.4v-8.9c0-0.7-0.2-1.3-0.7-1.8C68.9,23,68.3,22.8,67.6,22.8
	z"/>
<path class="st1" d="M87.3,16.5c-0.6-0.5-1.4-0.7-2.1-0.7c-0.7,0-1.4,0.1-2.1,0.3c-0.7,0.2-1.4,0.4-2,0.8c-0.6,0.3-1.2,0.8-1.7,1.3
	c-0.3,0.4-0.7,0.8-0.9,1.3v-0.6c0-0.7-0.2-1.3-0.7-1.8c-0.5-0.5-1.1-0.7-1.8-0.7c-0.7,0-1.3,0.2-1.8,0.7c-0.5,0.5-0.7,1.1-0.7,1.8
	v17.4c0,0.7,0.2,1.3,0.7,1.8c0.5,0.5,1.1,0.8,1.8,0.7c0.7,0,1.3-0.3,1.8-0.7c0.5-0.5,0.7-1.1,0.7-1.8v-10c0-0.9,0.1-1.8,0.4-2.6
	c0.2-0.7,0.6-1.3,1-1.9c0.4-0.5,0.9-0.9,1.4-1.1c0.5-0.2,1-0.3,1.5-0.4c0.5,0,1,0.1,1.5,0.3c0.5,0.2,1,0.3,1.4,0.3
	c0.6,0,1.1-0.2,1.6-0.6c0.5-0.5,0.8-1.3,0.7-2C88.1,17.5,87.8,16.9,87.3,16.5z"/>
<path class="st1" d="M106.5,19c-1-1-2.1-1.8-3.4-2.4c-1.3-0.6-2.6-0.9-4-0.9c-1.8,0-3.7,0.5-5.3,1.4c-1.7,1-3.1,2.4-4,4.1
	c-1.1,2-1.6,4.2-1.5,6.5c0,2,0.4,4,1.4,5.8c0.9,1.7,2.3,3.1,4,4.1c1.9,1,4,1.5,6.2,1.5c1.4,0,2.8-0.2,4.1-0.7c1.1-0.3,2.1-0.9,3-1.6
	c0.7-0.5,1.1-1.2,1.2-2.1c0-1.2-1-2.1-2.1-2.1c0,0,0,0,0,0c-0.5,0-1,0.1-1.4,0.4c-0.3,0.2-0.7,0.4-1,0.6c-0.5,0.3-1,0.5-1.5,0.6
	c-0.8,0.2-1.6,0.3-2.5,0.3c-2.3,0-4.5-1.2-5.6-3.2c-0.4-0.6-0.6-1.3-0.8-2.1h13.8c0.6,0,1.3-0.2,1.8-0.6c0.5-0.4,0.8-1,0.8-1.6
	c0-1.5-0.3-2.9-0.9-4.3C108.2,21.3,107.4,20.1,106.5,19z M104.3,25h-11c0.1-0.3,0.1-0.7,0.3-1c0.2-0.8,0.7-1.5,1.3-2.1
	c0.5-0.5,1.2-0.9,1.9-1.2c0.8-0.2,1.6-0.3,2.3-0.3c1.7,0,3.3,0.8,4.4,2.1c0.5,0.6,0.8,1.4,0.9,2.2L104.3,25z"/>
<path class="st1" d="M129.6,19c-1-1-2.1-1.8-3.4-2.4c-1.3-0.6-2.6-0.9-4-0.9c-1.8,0-3.7,0.5-5.3,1.4c-1.7,1-3.1,2.4-4,4.1
	c-1.1,2-1.6,4.2-1.5,6.5c0,2,0.5,4,1.4,5.8c0.9,1.7,2.3,3.1,4,4.1c1.9,1,4,1.5,6.2,1.5c1.4,0,2.8-0.2,4.1-0.7
	c1.1-0.4,2.2-0.9,3.1-1.6c0.7-0.5,1.1-1.2,1.2-2.1c0-1.2-0.9-2.1-2.1-2.1c0,0,0,0,0,0c-0.5,0-1,0.1-1.4,0.4c-0.3,0.2-0.7,0.4-1,0.6
	c-0.5,0.3-1,0.5-1.5,0.6c-0.8,0.2-1.6,0.3-2.5,0.3c-2.3,0-4.5-1.2-5.6-3.2c-0.4-0.6-0.6-1.3-0.8-2.1h13.9c0.6,0,1.3-0.2,1.8-0.6
	c0.5-0.4,0.8-1,0.8-1.6c0-1.5-0.3-2.9-0.9-4.3C131.4,21.3,130.6,20.1,129.6,19z M127.4,25h-11c0.1-0.3,0.1-0.7,0.3-1
	c0.2-0.8,0.7-1.5,1.3-2.1c0.5-0.5,1.2-0.9,1.9-1.1c0.8-0.2,1.6-0.3,2.3-0.3c1.7,0,3.3,0.8,4.4,2.1c0.5,0.6,0.8,1.4,0.9,2.2V25z"/>
<path class="st1" d="M152.4,17.1c-1.4-1-3-1.4-4.7-1.3c-0.9,0-1.8,0.1-2.6,0.4c-0.8,0.3-1.5,0.7-2.2,1.1c-0.6,0.4-1.2,1-1.7,1.5
	c-0.2,0.2-0.3,0.4-0.5,0.6v-0.7c0-0.7-0.3-1.3-0.8-1.8c-1-1-2.6-1-3.6,0c-0.5,0.5-0.7,1.1-0.7,1.8v17.4c0,0.7,0.2,1.3,0.7,1.8
	c1,1,2.6,1,3.6,0c0.5-0.5,0.7-1.1,0.7-1.8V25.4c0-0.9,0.2-1.7,0.6-2.5c0.4-0.8,1-1.4,1.8-1.8c0.9-0.5,1.8-0.7,2.8-0.7
	c0.9-0.1,1.9,0.2,2.6,0.7c0.6,0.4,1.1,1.1,1.3,1.8c0.2,0.8,0.4,1.7,0.4,2.5v10.8c0,0.7,0.3,1.3,0.8,1.8c1,1,2.6,1,3.6,0
	c0.5-0.5,0.7-1.1,0.7-1.8V25.4c0-1.6-0.2-3.2-0.6-4.8C154.3,19.2,153.5,18,152.4,17.1z"/>
<path class="st1" d="M162.5,7.6c-1.4,0-2.5,1.1-2.6,2.4c0,0,0,0.1,0,0.1v26c0,0.7,0.2,1.3,0.7,1.8c0.5,0.5,1.1,0.8,1.8,0.7
	c1.4,0.1,2.6-1,2.6-2.4c0-0.1,0-0.1,0-0.2v-26c0-0.7-0.2-1.3-0.7-1.8C163.8,7.8,163.1,7.5,162.5,7.6z"/>
<path class="st1" d="M186.1,19c-1-1-2.1-1.8-3.4-2.4c-1.3-0.6-2.6-0.9-4-0.9c-1.8,0-3.7,0.5-5.3,1.4c-1.7,1-3.1,2.4-4,4.1
	c-1.1,2-1.6,4.2-1.5,6.5c0,2,0.4,4,1.4,5.8c0.9,1.7,2.3,3.1,4,4.1c1.9,1,4,1.5,6.2,1.5c1.4,0,2.8-0.2,4.1-0.7
	c1.1-0.4,2.2-0.9,3.1-1.6c0.7-0.5,1.1-1.2,1.2-2.1c0-1.2-1-2.1-2.1-2.1c0,0,0,0,0,0c-0.5,0-1,0.1-1.4,0.4c-0.3,0.2-0.6,0.4-1,0.6
	c-0.5,0.3-1,0.5-1.5,0.6c-0.8,0.2-1.6,0.3-2.5,0.3c-2.3,0-4.5-1.2-5.6-3.2c-0.4-0.6-0.6-1.3-0.8-2.1h13.9c0.6,0,1.3-0.2,1.8-0.6
	c0.5-0.4,0.8-1,0.8-1.6c0-1.5-0.3-2.9-0.9-4.3C187.9,21.3,187.1,20.1,186.1,19z M183.9,25h-11c0.1-0.3,0.1-0.7,0.3-1
	c0.3-0.8,0.7-1.5,1.3-2.1c0.5-0.5,1.2-0.9,1.9-1.1c0.8-0.2,1.6-0.3,2.4-0.3c1.7,0,3.3,0.8,4.4,2.1c0.5,0.6,0.8,1.4,0.9,2.2V25z"/>
<path class="st1" d="M210.6,15.8c-0.7,0-1.3,0.2-1.8,0.7c-0.5,0.5-0.7,1.1-0.7,1.8v0.1c-0.3-0.2-0.5-0.5-0.8-0.7
	c-0.8-0.6-1.7-1.1-2.6-1.4c-1.1-0.4-2.2-0.6-3.3-0.5c-1.8,0-3.6,0.5-5.1,1.5c-1.6,1-2.8,2.4-3.7,4.1c-0.9,1.9-1.4,4-1.4,6.1
	c0,2.1,0.4,4.1,1.4,6c0.8,1.7,2.1,3.1,3.7,4.1c1.6,1,3.4,1.5,5.3,1.5c1,0,2-0.2,3-0.5c0.8-0.3,1.6-0.7,2.4-1.3
	c0.5-0.3,0.9-0.7,1.3-1.2c0,0.7,0.2,1.3,0.7,1.8c1,1,2.6,1,3.6,0c0.5-0.5,0.7-1.1,0.7-1.8V18.3c0-0.7-0.2-1.4-0.7-1.9
	C211.9,16,211.3,15.8,210.6,15.8z M207.5,31c-0.5,1-1.2,1.9-2.2,2.5c-2,1.2-4.5,1.2-6.4,0c-0.9-0.6-1.7-1.5-2.2-2.5
	c-0.5-1.1-0.8-2.3-0.8-3.6c0-1.2,0.2-2.5,0.8-3.6c0.5-1,1.2-1.9,2.2-2.5c2-1.2,4.5-1.2,6.4,0c0.9,0.6,1.7,1.5,2.2,2.5
	c0.5,1.1,0.8,2.4,0.8,3.6C208.3,28.7,208,29.9,207.5,31z"/>
<path class="st1" d="M225.7,13.6c0.2-0.4,0.4-0.8,0.8-1.1c0.5-0.3,1-0.5,1.6-0.5c0.5,0,1,0.1,1.5,0.2c0.4,0.1,0.8,0.2,1.1,0.2
	c0.5,0,1-0.2,1.4-0.6c0.4-0.4,0.6-1,0.6-1.7c0-0.6-0.2-1.1-0.6-1.5c-0.4-0.4-0.9-0.7-1.5-0.8c-0.6-0.2-1.2-0.3-1.8-0.3
	c-2.8,0-4.9,0.7-6.3,2.1c-1.4,1.3-2.1,3.1-2.1,5v1.9h-2.3c-0.6,0-1.2,0.2-1.7,0.6c-0.9,0.9-0.9,2.4,0,3.3c0.5,0.4,1.1,0.7,1.7,0.6
	h2.3v14.9c0,0.7,0.2,1.3,0.7,1.8c1,1,2.6,1,3.6,0c0.5-0.5,0.7-1.1,0.7-1.8V21.2h3.8c0.6,0,1.2-0.2,1.7-0.6c0.9-0.9,0.9-2.4,0-3.3
	c-0.4-0.4-1.1-0.7-1.7-0.6h-3.8v-2C225.5,14.3,225.6,13.9,225.7,13.6z"/>
</svg>
